<svg width="60" height="60" viewBox="0 0 60 60" fill="none" xmlns="http://www.w3.org/2000/svg">
<path d="M15.984 13.336V15.768H44.112V13.336H15.984ZM31.568 14.296L29.168 14.872C31.568 23.48 35.92 30.232 42.832 33.496C43.248 32.824 44.048 31.8 44.656 31.256C38 28.504 33.648 22.04 31.568 14.296ZM28.752 4.152C28.688 11.832 28.944 25.624 15.344 31.544C16.016 32.024 16.784 32.888 17.168 33.528C31.152 27.128 31.216 12.536 31.344 4.152H28.752Z" fill="white"/>
<path d="M11.3892 43.3636V55H9.98011V44.8409H9.91193L7.07102 46.7273V45.2955L9.98011 43.3636H11.3892ZM18.8267 43.3636V55H17.4176V44.8409H17.3494L14.5085 46.7273V45.2955L17.4176 43.3636H18.8267ZM31.696 48.5568V49.8068H26.6051V48.5568H31.696ZM42.6236 43.3636V55H41.2145V44.8409H41.1463L38.3054 46.7273V45.2955L41.2145 43.3636H42.6236ZM46.3338 55L51.5384 44.7045V44.6136H45.5384V43.3636H52.9929V44.6818L47.8111 55H46.3338Z" fill="white"/>
</svg>
