<svg width="60" height="60" viewBox="0 0 60 60" fill="none" xmlns="http://www.w3.org/2000/svg">
<path d="M28.816 4.6V30.232C28.816 30.872 28.592 31.096 27.92 31.096C27.28 31.128 24.976 31.16 22.608 31.064C23.024 31.768 23.472 32.888 23.6 33.592C26.64 33.592 28.624 33.528 29.776 33.112C30.928 32.728 31.408 32.024 31.408 30.232V4.6H28.816ZM36.56 12.76C39.28 17.336 41.872 23.352 42.64 27.128L45.2 26.104C44.368 22.232 41.648 16.376 38.864 11.864L36.56 12.76ZM20.432 12.088C19.632 16.408 17.872 21.944 15.024 25.336C15.664 25.592 16.72 26.168 17.296 26.616C20.208 23.032 22.064 17.24 23.12 12.536L20.432 12.088Z" fill="white"/>
<path d="M8.40057 52.6136V51.4545L13.5142 43.3636H14.3551V45.1591H13.7869L9.9233 51.2727V51.3636H16.8097V52.6136H8.40057ZM13.8778 55V52.2614V51.7216V43.3636H15.2188V55H13.8778ZM28.4616 48.5568V49.8068H23.3707V48.5568H28.4616ZM39.3892 43.3636V55H37.9801V44.8409H37.9119L35.071 46.7273V45.2955L37.9801 43.3636H39.3892ZM46.5312 55.1591C45.6752 55.1591 44.946 54.9261 44.3438 54.4602C43.7415 53.9905 43.2813 53.3106 42.9631 52.4205C42.6449 51.5265 42.4858 50.447 42.4858 49.1818C42.4858 47.9242 42.6449 46.8504 42.9631 45.9602C43.285 45.0663 43.7472 44.3845 44.3494 43.9148C44.9555 43.4413 45.6828 43.2045 46.5312 43.2045C47.3797 43.2045 48.1051 43.4413 48.7074 43.9148C49.3134 44.3845 49.7756 45.0663 50.0938 45.9602C50.4157 46.8504 50.5767 47.9242 50.5767 49.1818C50.5767 50.447 50.4176 51.5265 50.0994 52.4205C49.7812 53.3106 49.321 53.9905 48.7188 54.4602C48.1165 54.9261 47.3873 55.1591 46.5312 55.1591ZM46.5312 53.9091C47.3797 53.9091 48.0388 53.5 48.5085 52.6818C48.9782 51.8636 49.2131 50.697 49.2131 49.1818C49.2131 48.1742 49.1051 47.3163 48.8892 46.608C48.6771 45.8996 48.3703 45.3598 47.9688 44.9886C47.571 44.6174 47.0919 44.4318 46.5312 44.4318C45.6903 44.4318 45.0331 44.8466 44.5597 45.6761C44.0862 46.5019 43.8494 47.6705 43.8494 49.1818C43.8494 50.1894 43.9555 51.0455 44.1676 51.75C44.3797 52.4545 44.6847 52.9905 45.0824 53.358C45.4839 53.7254 45.9669 53.9091 46.5312 53.9091Z" fill="white"/>
</svg>
