<svg version="1.2" xmlns="http://www.w3.org/2000/svg" viewBox="0 0 35 35" width="35" height="35">
	<title>image</title>
	<defs>
		<clipPath clipPathUnits="userSpaceOnUse" id="cp1">
			<path d="m0 0h35v35h-35z"/>
		</clipPath>
	</defs>
	<style>
		.s0 { fill: #1c1b1f } 
	</style>
	<g id="Clip-Path" clip-path="url(#cp1)">
		<g id="Layer">
			<path id="Layer" fill-rule="evenodd" class="s0" d="m27.4 21.2v-5.2h-5.1v-2.4h5.1v-5.2h2.4v5.2h5.2v2.4h-5.2v5.2zm-14.7-3.3q-2.6 0-4.3-1.6-1.7-1.7-1.7-4.3 0-2.7 1.7-4.3 1.7-1.7 4.3-1.7 2.6 0 4.3 1.7 1.7 1.6 1.7 4.3 0 2.6-1.7 4.3-1.7 1.6-4.3 1.6zm-12.7 12.8v-3.7q0-1.4 0.7-2.6 0.7-1.1 2-1.7 3-1.3 5.3-1.8 2.3-0.5 4.7-0.5 2.4 0 4.7 0.5 2.3 0.5 5.3 1.8 1.3 0.6 2 1.8 0.7 1.1 0.7 2.5v3.7zm2.4-2.4h20.7v-1.3q0-0.7-0.3-1.3-0.4-0.5-1-0.8-2.8-1.3-4.8-1.7-1.9-0.5-4.2-0.5-2.3 0-4.3 0.5-2 0.4-4.8 1.7-0.6 0.3-0.9 0.8-0.4 0.6-0.4 1.3zm10.4-12.8q1.5 0 2.5-1 1-1 1-2.6 0-1.5-1-2.6-1-1-2.5-1-1.6 0-2.6 1-1 1.1-1 2.6 0 1.6 1 2.6 1 1 2.6 1z"/>
		</g>
	</g>
</svg>