<svg version="1.2" xmlns="http://www.w3.org/2000/svg" viewBox="0 0 35 35" width="35" height="35">
	<title>image</title>
	<defs>
		<clipPath clipPathUnits="userSpaceOnUse" id="cp1">
			<path d="m0 0h35v35h-35z"/>
		</clipPath>
	</defs>
	<style>
		.s0 { fill: #1c1b1f } 
	</style>
	<g id="Clip-Path" clip-path="url(#cp1)">
		<g id="Layer">
			<path id="Layer" fill-rule="evenodd" class="s0" d="m4.8 32.6v-15.6l-3.2 2.5-1.6-2.2 17.5-13.3 17.5 13.4-1.6 2-3.2-2.4v15.6zm2.7-2.6h20.1v-15l-10-7.7-10.1 7.7zm3.7-6.9q-0.7 0-1.1-0.4-0.5-0.5-0.5-1.2 0-0.6 0.5-1.1 0.4-0.4 1.1-0.4 0.7 0 1.1 0.4 0.5 0.5 0.5 1.1 0 0.7-0.5 1.2-0.4 0.4-1.1 0.4zm6.4 0q-0.7 0-1.2-0.4-0.4-0.5-0.4-1.2 0-0.6 0.4-1.1 0.5-0.4 1.2-0.4 0.6 0 1.1 0.4 0.4 0.5 0.4 1.1 0 0.7-0.4 1.2-0.5 0.4-1.1 0.4zm6.3 0q-0.7 0-1.1-0.4-0.5-0.5-0.5-1.2 0-0.6 0.5-1.1 0.4-0.4 1.1-0.4 0.7 0 1.2 0.4 0.4 0.5 0.4 1.1 0 0.7-0.4 1.2-0.5 0.4-1.2 0.4z"/>
		</g>
	</g>
</svg>