<svg version="1.2" xmlns="http://www.w3.org/2000/svg" viewBox="0 0 35 35" width="35" height="35">
	<title>image</title>
	<defs>
		<clipPath clipPathUnits="userSpaceOnUse" id="cp1">
			<path d="m0 0h35v35h-35z"/>
		</clipPath>
	</defs>
	<style>
		.s0 { fill: #1c1b1f } 
	</style>
	<g id="Clip-Path" clip-path="url(#cp1)">
		<g id="Layer">
			<path id="Layer" fill-rule="evenodd" class="s0" d="m17.5 35q-3.6 0-6.8-1.4-3.2-1.4-5.6-3.7-2.3-2.4-3.7-5.6-1.4-3.2-1.4-6.8 0-3.6 1.4-6.8 1.4-3.2 3.7-5.6 2.4-2.3 5.6-3.7 3.2-1.4 6.8-1.4 3.6 0 6.8 1.4 3.2 1.4 5.6 3.7 2.3 2.4 3.7 5.6 1.4 3.2 1.4 6.8 0 3.6-1.4 6.8-1.4 3.2-3.7 5.6-2.4 2.3-5.6 3.7-3.2 1.4-6.8 1.4zm-11.3-7.7q2.8-1.9 5.5-2.9 2.7-1 5.8-1 3.1 0 5.8 1 2.8 1 5.5 2.9 2-2.3 2.8-4.7 0.8-2.4 0.8-5.1 0-6.3-4.3-10.6-4.3-4.3-10.6-4.3-6.3 0-10.6 4.3-4.3 4.3-4.3 10.6 0 2.7 0.9 5.1 0.8 2.4 2.7 4.7zm11.3-8.5q-2.5 0-4.3-1.7-1.7-1.7-1.7-4.3 0-2.5 1.7-4.2 1.8-1.8 4.3-1.8 2.5 0 4.3 1.8 1.7 1.7 1.7 4.2 0 2.6-1.7 4.3-1.8 1.7-4.3 1.7zm0 13.6q2.4 0 4.7-0.7 2.3-0.7 4.5-2.5-2.2-1.6-4.5-2.4-2.3-0.8-4.7-0.8-2.4 0-4.7 0.8-2.3 0.8-4.5 2.4 2.2 1.8 4.5 2.5 2.3 0.7 4.7 0.7zm0-16.2q1.5 0 2.4-1 1-0.9 1-2.4 0-1.5-1-2.4-0.9-0.9-2.4-1-1.5 0.1-2.4 1-1 0.9-1 2.4 0 1.5 1 2.4 0.9 1 2.4 1z"/>
		</g>
	</g>
</svg>