<svg version="1.2" xmlns="http://www.w3.org/2000/svg" viewBox="0 0 35 35" width="35" height="35">
	<title>image</title>
	<defs>
		<clipPath clipPathUnits="userSpaceOnUse" id="cp1">
			<path d="m0 0h35v35h-35z"/>
		</clipPath>
	</defs>
	<style>
		.s0 { fill: #1c1b1f } 
	</style>
	<g id="Clip-Path" clip-path="url(#cp1)">
		<g id="Layer">
			<path id="Layer" fill-rule="evenodd" class="s0" d="m5.6 35q-1.9 0-3.3-1.3-1.3-1.4-1.3-3.3v-5.5h5.6v-24.9l2.6 2.6 2.6-2.6 2.6 2.6 2.6-2.6 2.6 2.6 2.7-2.6 2.6 2.6 2.6-2.6 2.6 2.6 2.7-2.6v30.4q0 1.9-1.4 3.3-1.3 1.3-3.2 1.3zm22.5-2.6q0.9 0 1.5-0.6 0.5-0.5 0.5-1.4v-26h-20.9v20.5h17v5.5q0 0.9 0.5 1.4 0.6 0.6 1.4 0.6zm-16.6-21.1v-2.6h10.5v2.6zm0 5.9v-2.7h10.5v2.7zm14.5-5.9q-0.5 0-0.9-0.4-0.4-0.4-0.4-0.9 0-0.5 0.4-0.9 0.4-0.4 0.9-0.4 0.6 0 1 0.4 0.4 0.4 0.4 0.9 0 0.5-0.4 0.9-0.4 0.4-1 0.4zm0 5.6q-0.5 0-0.9-0.4-0.4-0.4-0.4-0.9 0-0.5 0.4-0.9 0.4-0.4 0.9-0.4 0.6 0 1 0.4 0.4 0.4 0.4 0.9 0 0.5-0.4 0.9-0.4 0.4-1 0.4zm-20.5 15.5h18.1v-4.8h-20v2.8q0 0.9 0.5 1.4 0.6 0.6 1.4 0.6z"/>
		</g>
	</g>
</svg>